{
	"asset":{
		"generator":"Khronos glTF Blender I/O v3.6.27",
		"version":"2.0"
	},
	"scene":0,
	"scenes":[
		{
			"name":"Scene",
			"nodes":[
				4
			]
		}
	],
	"nodes":[
		{
			"mesh":0,
			"name":"Polygon",
			"rotation":[
				0,
				0,
				0.003026674035936594,
				0.9999954700469971
			],
			"translation":[
				0.24464932084083557,
				24.265851974487305,
				-9.297483444213867
			]
		},
		{
			"children":[
				0
			],
			"name":"Cloth_Surface",
			"translation":[
				-0.054112423211336136,
				-21.033924102783203,
				12.288172721862793
			]
		},
		{
			"mesh":1,
			"name":"Cylinder",
			"translation":[
				3.5540826320648193,
				10.516961097717285,
				-6.1440863609313965
			]
		},
		{
			"mesh":2,
			"name":"Cylinder_1",
			"translation":[
				-3.499969959259033,
				10.516961097717285,
				-6.1440863609313965
			]
		},
		{
			"children":[
				1,
				2,
				3
			],
			"name":"Null_8",
			"rotation":[
				0.707099974155426,
				0.003130743745714426,
				-0.003130717668682337,
				0.7070997953414917
			],
			"scale":[
				0.009999999776482582,
				0.010000000707805157,
				0.010000000707805157
			],
			"translation":[
				-0.0004625171422958374,
				0,
				0.002453148365020752
			]
		}
	],
	"meshes":[
		{
			"name":"Mesh.001",
			"primitives":[
				{
					"attributes":{
						"POSITION":0,
						"NORMAL":1,
						"TEXCOORD_0":2
					},
					"indices":3
				}
			]
		},
		{
			"name":"Mesh.002",
			"primitives":[
				{
					"attributes":{
						"POSITION":4,
						"NORMAL":5,
						"TEXCOORD_0":6
					},
					"indices":7
				}
			]
		},
		{
			"name":"Mesh",
			"primitives":[
				{
					"attributes":{
						"POSITION":8,
						"NORMAL":9,
						"TEXCOORD_0":10
					},
					"indices":7
				}
			]
		}
	],
	"accessors":[
		{
			"bufferView":0,
			"componentType":5126,
			"count":426,
			"max":[
				13.402271270751953,
				36.61366271972656,
				9.281841278076172
			],
			"min":[
				-13.500585556030273,
				-40.133140563964844,
				-14.866353988647461
			],
			"type":"VEC3"
		},
		{
			"bufferView":1,
			"componentType":5126,
			"count":426,
			"type":"VEC3"
		},
		{
			"bufferView":2,
			"componentType":5126,
			"count":426,
			"type":"VEC2"
		},
		{
			"bufferView":3,
			"componentType":5123,
			"count":1296,
			"type":"SCALAR"
		},
		{
			"bufferView":4,
			"componentType":5126,
			"count":119,
			"max":[
				3.417046546936035,
				3.417046546936035,
				8.001969337463379
			],
			"min":[
				-3.417046546936035,
				-3.417046546936035,
				-8.001969337463379
			],
			"type":"VEC3"
		},
		{
			"bufferView":5,
			"componentType":5126,
			"count":119,
			"type":"VEC3"
		},
		{
			"bufferView":6,
			"componentType":5126,
			"count":119,
			"type":"VEC2"
		},
		{
			"bufferView":7,
			"componentType":5123,
			"count":480,
			"type":"SCALAR"
		},
		{
			"bufferView":8,
			"componentType":5126,
			"count":119,
			"max":[
				3.417046546936035,
				3.417046546936035,
				8.001969337463379
			],
			"min":[
				-3.417046546936035,
				-3.417046546936035,
				-8.001969337463379
			],
			"type":"VEC3"
		},
		{
			"bufferView":9,
			"componentType":5126,
			"count":119,
			"type":"VEC3"
		},
		{
			"bufferView":10,
			"componentType":5126,
			"count":119,
			"type":"VEC2"
		}
	],
	"bufferViews":[
		{
			"buffer":0,
			"byteLength":5112,
			"byteOffset":0,
			"target":34962
		},
		{
			"buffer":0,
			"byteLength":5112,
			"byteOffset":5112,
			"target":34962
		},
		{
			"buffer":0,
			"byteLength":3408,
			"byteOffset":10224,
			"target":34962
		},
		{
			"buffer":0,
			"byteLength":2592,
			"byteOffset":13632,
			"target":34963
		},
		{
			"buffer":0,
			"byteLength":1428,
			"byteOffset":16224,
			"target":34962
		},
		{
			"buffer":0,
			"byteLength":1428,
			"byteOffset":17652,
			"target":34962
		},
		{
			"buffer":0,
			"byteLength":952,
			"byteOffset":19080,
			"target":34962
		},
		{
			"buffer":0,
			"byteLength":960,
			"byteOffset":20032,
			"target":34963
		},
		{
			"buffer":0,
			"byteLength":1428,
			"byteOffset":20992,
			"target":34962
		},
		{
			"buffer":0,
			"byteLength":1428,
			"byteOffset":22420,
			"target":34962
		},
		{
			"buffer":0,
			"byteLength":952,
			"byteOffset":23848,
			"target":34962
		}
	],
	"buffers":[
		{
			"byteLength":24800,
			"uri":"data:application/octet-stream;base64,"
		}
	]
}
