{
	"asset":{
		"generator":"Khronos glTF Blender I/O v3.6.27",
		"version":"2.0"
	},
	"scene":0,
	"scenes":[
		{
			"name":"Scene",
			"nodes":[
				0
			]
		}
	],
	"nodes":[
		{
			"mesh":0,
			"name":"01_2",
			"rotation":[
				0.7071068286895752,
				0,
				0,
				0.7071068286895752
			],
			"scale":[
				0.009999999776482582,
				0.009999999776482582,
				0.009999999776482582
			],
			"translation":[
				-0.14542900025844574,
				0.22630977630615234,
				-0.47133010625839233
			]
		}
	],
	"materials":[
		{
			"doubleSided":true,
			"name":"Mat",
			"pbrMetallicRoughness":{
				"baseColorFactor":[
					0.886274516582489,
					0.8078431487083435,
					0.6078431606292725,
					1
				],
				"metallicFactor":0,
				"roughnessFactor":0.4343145787715912
			}
		}
	],
	"meshes":[
		{
			"name":"Mesh",
			"primitives":[
				{
					"attributes":{
						"POSITION":0,
						"NORMAL":1,
						"TEXCOORD_0":2
					},
					"indices":3,
					"material":0
				}
			]
		}
	],
	"accessors":[
		{
			"bufferView":0,
			"componentType":5126,
			"count":3963,
			"max":[
				401.1415100097656,
				447.752197265625,
				348.62176513671875
			],
			"min":[
				-395.2010192871094,
				-353.4861755371094,
				-459.8946533203125
			],
			"type":"VEC3"
		},
		{
			"bufferView":1,
			"componentType":5126,
			"count":3963,
			"type":"VEC3"
		},
		{
			"bufferView":2,
			"componentType":5126,
			"count":3963,
			"type":"VEC2"
		},
		{
			"bufferView":3,
			"componentType":5123,
			"count":16836,
			"type":"SCALAR"
		}
	],
	"bufferViews":[
		{
			"buffer":0,
			"byteLength":47556,
			"byteOffset":0,
			"target":34962
		},
		{
			"buffer":0,
			"byteLength":47556,
			"byteOffset":47556,
			"target":34962
		},
		{
			"buffer":0,
			"byteLength":31704,
			"byteOffset":95112,
			"target":34962
		},
		{
			"buffer":0,
			"byteLength":33672,
			"byteOffset":126816,
			"target":34963
		}
	],
	"buffers":[
		{
			"byteLength":160488,
			"uri":"data:application/octet-stream;base64,"
		}
	]
}
