{
	"asset":{
		"generator":"Khronos glTF Blender I/O v3.6.27",
		"version":"2.0"
	},
	"scene":0,
	"scenes":[
		{
			"name":"Scene",
			"nodes":[
				0,
				1,
				4
			]
		}
	],
	"nodes":[
		{
			"mesh":0,
			"name":"Cylinder",
			"rotation":[
				0.7071068286895752,
				0,
				0,
				0.7071068286895752
			],
			"scale":[
				0.009999999776482582,
				0.009999999776482582,
				0.009999999776482582
			],
			"translation":[
				0.04974234104156494,
				-3.1401968002319336,
				0.018573202192783356
			]
		},
		{
			"mesh":1,
			"name":"Sphere",
			"rotation":[
				0.7071068286895752,
				0,
				0,
				0.7071068286895752
			],
			"scale":[
				0.009999999776482582,
				0.009999999776482582,
				0.009999999776482582
			],
			"translation":[
				-0.004363656044006348,
				4.615126609802246,
				-0.16015899181365967
			]
		},
		{
			"mesh":2,
			"name":"Oleg01"
		},
		{
			"mesh":3,
			"name":"Oleg01_1"
		},
		{
			"children":[
				2,
				3
			],
			"name":"Symmetry",
			"rotation":[
				0.7071068286895752,
				0,
				0,
				0.7071068286895752
			],
			"scale":[
				0.009999999776482582,
				0.009999999776482582,
				0.009999999776482582
			],
			"translation":[
				-0.0118408203125,
				1.279579758644104,
				-0.18223129212856293
			]
		}
	],
	"materials":[
		{
			"doubleSided":true,
			"name":"Glass",
			"pbrMetallicRoughness":{}
		}
	],
	"meshes":[
		{
			"name":"Mesh",
			"primitives":[
				{
					"attributes":{
						"POSITION":0,
						"NORMAL":1,
						"TEXCOORD_0":2
					},
					"indices":3,
					"material":0
				}
			]
		},
		{
			"name":"Mesh.001",
			"primitives":[
				{
					"attributes":{
						"POSITION":4,
						"NORMAL":5,
						"TEXCOORD_0":6
					},
					"indices":7,
					"material":0
				}
			]
		},
		{
			"name":"Mesh.003",
			"primitives":[
				{
					"attributes":{
						"POSITION":8,
						"NORMAL":9,
						"TEXCOORD_0":10
					},
					"indices":11,
					"material":0
				}
			]
		},
		{
			"name":"Mesh.002",
			"primitives":[
				{
					"attributes":{
						"POSITION":12,
						"NORMAL":13,
						"TEXCOORD_0":14
					},
					"indices":15,
					"material":0
				}
			]
		}
	],
	"accessors":[
		{
			"bufferView":0,
			"componentType":5126,
			"count":119,
			"max":[
				123.01118469238281,
				123.01118469238281,
				57.306358337402344
			],
			"min":[
				-123.01118469238281,
				-123.01118469238281,
				-57.306358337402344
			],
			"type":"VEC3"
		},
		{
			"bufferView":1,
			"componentType":5126,
			"count":119,
			"type":"VEC3"
		},
		{
			"bufferView":2,
			"componentType":5126,
			"count":119,
			"type":"VEC2"
		},
		{
			"bufferView":3,
			"componentType":5123,
			"count":480,
			"type":"SCALAR"
		},
		{
			"bufferView":4,
			"componentType":5126,
			"count":59,
			"max":[
				47.82820129394531,
				53.79999923706055,
				62.60867691040039
			],
			"min":[
				-47.82820129394531,
				-45.544002532958984,
				-53.79999923706055
			],
			"type":"VEC3"
		},
		{
			"bufferView":5,
			"componentType":5126,
			"count":59,
			"type":"VEC3"
		},
		{
			"bufferView":6,
			"componentType":5126,
			"count":59,
			"type":"VEC2"
		},
		{
			"bufferView":7,
			"componentType":5123,
			"count":150,
			"type":"SCALAR"
		},
		{
			"bufferView":8,
			"componentType":5126,
			"count":303,
			"max":[
				128.1083526611328,
				66.23946380615234,
				396.3855285644531
			],
			"min":[
				-4.092710971832275,
				-65.7972640991211,
				-297.69873046875
			],
			"type":"VEC3"
		},
		{
			"bufferView":9,
			"componentType":5126,
			"count":303,
			"type":"VEC3"
		},
		{
			"bufferView":10,
			"componentType":5126,
			"count":303,
			"type":"VEC2"
		},
		{
			"bufferView":11,
			"componentType":5123,
			"count":903,
			"type":"SCALAR"
		},
		{
			"bufferView":12,
			"componentType":5126,
			"count":304,
			"max":[
				4.092710971832275,
				66.23946380615234,
				396.3855285644531
			],
			"min":[
				-128.1083526611328,
				-65.7972640991211,
				-297.69873046875
			],
			"type":"VEC3"
		},
		{
			"bufferView":13,
			"componentType":5126,
			"count":304,
			"type":"VEC3"
		},
		{
			"bufferView":14,
			"componentType":5126,
			"count":304,
			"type":"VEC2"
		},
		{
			"bufferView":15,
			"componentType":5123,
			"count":903,
			"type":"SCALAR"
		}
	],
	"bufferViews":[
		{
			"buffer":0,
			"byteLength":1428,
			"byteOffset":0,
			"target":34962
		},
		{
			"buffer":0,
			"byteLength":1428,
			"byteOffset":1428,
			"target":34962
		},
		{
			"buffer":0,
			"byteLength":952,
			"byteOffset":2856,
			"target":34962
		},
		{
			"buffer":0,
			"byteLength":960,
			"byteOffset":3808,
			"target":34963
		},
		{
			"buffer":0,
			"byteLength":708,
			"byteOffset":4768,
			"target":34962
		},
		{
			"buffer":0,
			"byteLength":708,
			"byteOffset":5476,
			"target":34962
		},
		{
			"buffer":0,
			"byteLength":472,
			"byteOffset":6184,
			"target":34962
		},
		{
			"buffer":0,
			"byteLength":300,
			"byteOffset":6656,
			"target":34963
		},
		{
			"buffer":0,
			"byteLength":3636,
			"byteOffset":6956,
			"target":34962
		},
		{
			"buffer":0,
			"byteLength":3636,
			"byteOffset":10592,
			"target":34962
		},
		{
			"buffer":0,
			"byteLength":2424,
			"byteOffset":14228,
			"target":34962
		},
		{
			"buffer":0,
			"byteLength":1806,
			"byteOffset":16652,
			"target":34963
		},
		{
			"buffer":0,
			"byteLength":3648,
			"byteOffset":18460,
			"target":34962
		},
		{
			"buffer":0,
			"byteLength":3648,
			"byteOffset":22108,
			"target":34962
		},
		{
			"buffer":0,
			"byteLength":2432,
			"byteOffset":25756,
			"target":34962
		},
		{
			"buffer":0,
			"byteLength":1806,
			"byteOffset":28188,
			"target":34963
		}
	],
	"buffers":[
		{
			"byteLength":29996,
			"uri":"data:application/octet-stream;base64,"
		}
	]
}
