{
	"asset":{
		"generator":"Khronos glTF Blender I/O v3.6.27",
		"version":"2.0"
	},
	"scene":0,
	"scenes":[
		{
			"name":"Scene",
			"nodes":[
				0
			]
		}
	],
	"nodes":[
		{
			"mesh":0,
			"name":"Circle",
			"scale":[
				5,
				5,
				5
			]
		}
	],
	"materials":[
		{
			"doubleSided":true,
			"name":"layer1",
			"pbrMetallicRoughness":{
				"baseColorFactor":[
					0.03310396894812584,
					0.24620093405246735,
					1,
					1
				],
				"metallicFactor":0,
				"roughnessFactor":0.5
			}
		},
		{
			"doubleSided":true,
			"name":"layer2",
			"pbrMetallicRoughness":{
				"baseColorFactor":[
					0.7083756923675537,
					0.36130642890930176,
					0.11953853815793991,
					1
				],
				"metallicFactor":0,
				"roughnessFactor":0.5
			}
		},
		{
			"doubleSided":true,
			"name":"layer3",
			"pbrMetallicRoughness":{
				"baseColorFactor":[
					0.3915724754333496,
					0.14995966851711273,
					0.06662599742412567,
					1
				],
				"metallicFactor":0,
				"roughnessFactor":0.5
			}
		}
	],
	"meshes":[
		{
			"name":"Circle",
			"primitives":[
				{
					"attributes":{
						"POSITION":0,
						"NORMAL":1,
						"TEXCOORD_0":2
					},
					"indices":3,
					"material":0
				},
				{
					"attributes":{
						"POSITION":4,
						"NORMAL":5,
						"TEXCOORD_0":6
					},
					"indices":7,
					"material":1
				},
				{
					"attributes":{
						"POSITION":8,
						"NORMAL":9,
						"TEXCOORD_0":10
					},
					"indices":11,
					"material":2
				}
			]
		}
	],
	"accessors":[
		{
			"bufferView":0,
			"componentType":5126,
			"count":160,
			"max":[
				1,
				0,
				1
			],
			"min":[
				-1,
				-0.012612046673893929,
				-1
			],
			"type":"VEC3"
		},
		{
			"bufferView":1,
			"componentType":5126,
			"count":160,
			"type":"VEC3"
		},
		{
			"bufferView":2,
			"componentType":5126,
			"count":160,
			"type":"VEC2"
		},
		{
			"bufferView":3,
			"componentType":5123,
			"count":282,
			"type":"SCALAR"
		},
		{
			"bufferView":4,
			"componentType":5126,
			"count":128,
			"max":[
				1,
				-0.012612045742571354,
				1
			],
			"min":[
				-1,
				-0.025224093347787857,
				-1
			],
			"type":"VEC3"
		},
		{
			"bufferView":5,
			"componentType":5126,
			"count":128,
			"type":"VEC3"
		},
		{
			"bufferView":6,
			"componentType":5126,
			"count":128,
			"type":"VEC2"
		},
		{
			"bufferView":7,
			"componentType":5123,
			"count":192,
			"type":"SCALAR"
		},
		{
			"bufferView":8,
			"componentType":5126,
			"count":160,
			"max":[
				1,
				-0.025224091485142708,
				1
			],
			"min":[
				-1,
				-0.037836138159036636,
				-1
			],
			"type":"VEC3"
		},
		{
			"bufferView":9,
			"componentType":5126,
			"count":160,
			"type":"VEC3"
		},
		{
			"bufferView":10,
			"componentType":5126,
			"count":160,
			"type":"VEC2"
		},
		{
			"bufferView":11,
			"componentType":5123,
			"count":282,
			"type":"SCALAR"
		}
	],
	"bufferViews":[
		{
			"buffer":0,
			"byteLength":1920,
			"byteOffset":0,
			"target":34962
		},
		{
			"buffer":0,
			"byteLength":1920,
			"byteOffset":1920,
			"target":34962
		},
		{
			"buffer":0,
			"byteLength":1280,
			"byteOffset":3840,
			"target":34962
		},
		{
			"buffer":0,
			"byteLength":564,
			"byteOffset":5120,
			"target":34963
		},
		{
			"buffer":0,
			"byteLength":1536,
			"byteOffset":5684,
			"target":34962
		},
		{
			"buffer":0,
			"byteLength":1536,
			"byteOffset":7220,
			"target":34962
		},
		{
			"buffer":0,
			"byteLength":1024,
			"byteOffset":8756,
			"target":34962
		},
		{
			"buffer":0,
			"byteLength":384,
			"byteOffset":9780,
			"target":34963
		},
		{
			"buffer":0,
			"byteLength":1920,
			"byteOffset":10164,
			"target":34962
		},
		{
			"buffer":0,
			"byteLength":1920,
			"byteOffset":12084,
			"target":34962
		},
		{
			"buffer":0,
			"byteLength":1280,
			"byteOffset":14004,
			"target":34962
		},
		{
			"buffer":0,
			"byteLength":564,
			"byteOffset":15284,
			"target":34963
		}
	],
	"buffers":[
		{
			"byteLength":15848,
			"uri":"data:application/octet-stream;base64,"
		}
	]
}
